<svg width="12" height="12" viewBox="0 0 12 12" fill="none" xmlns="http://www.w3.org/2000/svg"><path d="M6 3.778v4.444M3.778 6h4.444m-4.555 5h4.667c0.933 0 1.4 0 1.756 -0.182a1.665 1.665 0 0 0 0.728 -0.728c0.182 -0.357 0.182 -0.824 0.182 -1.756V3.667c0 -0.933 0 -1.4 -0.182 -1.756a1.665 1.665 0 0 0 -0.728 -0.729c-0.356 -0.181 -0.823 -0.181 -1.756 -0.181H3.667c-0.933 0 -1.4 0 -1.756 0.181a1.665 1.665 0 0 0 -0.729 0.729c-0.181 0.356 -0.181 0.823 -0.181 1.756v4.667c0 0.933 0 1.4 0.181 1.756a1.665 1.665 0 0 0 0.729 0.728c0.356 0.182 0.823 0.182 1.756 0.182" stroke="white" stroke-width="1.3333333333333333" stroke-linecap="round" stroke-linejoin="round"/></svg>