<svg width="20" height="20" viewBox="0 0 20 20" fill="none" xmlns="http://www.w3.org/2000/svg">
<path d="M7 19H2.6C2.03995 19 1.75992 19 1.54601 18.891C1.35785 18.7951 1.20487 18.6422 1.10899 18.454C1 18.2401 1 17.9601 1 17.4V2.6C1 2.03995 1 1.75992 1.10899 1.54601C1.20487 1.35785 1.35785 1.20487 1.54601 1.10899C1.75992 1 2.03995 1 2.6 1H5.4C5.96005 1 6.24008 1 6.45399 1.10899C6.64215 1.20487 6.79513 1.35785 6.89101 1.54601C7 1.75992 7 2.03995 7 2.6V5M7 19H13M7 19L7 5M7 5H11.4C11.9601 5 12.2401 5 12.454 5.10899C12.6422 5.20487 12.7951 5.35785 12.891 5.54601C13 5.75992 13 6.03995 13 6.6V19M13 9H17.4C17.9601 9 18.2401 9 18.454 9.10899C18.6422 9.20487 18.7951 9.35785 18.891 9.54601C19 9.75992 19 10.0399 19 10.6V17.4C19 17.9601 19 18.2401 18.891 18.454C18.7951 18.6422 18.6422 18.7951 18.454 18.891C18.2401 19 17.9601 19 17.4 19H13"  stroke-width="2" stroke-linecap="round" stroke-linejoin="round"/>
</svg>
