<svg width="132" height="132" viewBox="0 0 132 132" fill="none" xmlns="http://www.w3.org/2000/svg">
<path d="M132 132C132 114.666 128.586 97.5008 121.952 81.4858C115.318 65.4708 105.595 50.9192 93.3381 38.6619C81.0808 26.4046 66.5292 16.6815 50.5142 10.0479C34.4992 3.41428 17.3345 -7.57714e-07 0 0L1.00708e-05 132H132Z" fill="#B78AF7"/>
<path d="M66 132C66 123.333 64.2929 114.75 60.9761 106.743C57.6592 98.7354 52.7977 91.4596 46.6691 85.331C40.5404 79.2023 33.2646 74.3408 25.2571 71.024C17.2496 67.7071 8.66724 66 0 66L5.0354e-06 132H66Z" fill="#6200EE"/>
</svg>
