<svg width="18" height="16" viewBox="0 0 34 32" fill="none" xmlns="http://www.w3.org/2000/svg">
<path d="M12.2501 21.5417H9.87509C7.66544 21.5417 6.56062 21.5417 5.66161 21.8144C3.63747 22.4284 2.05348 24.0124 1.43946 26.0365C1.16675 26.9355 1.16675 28.0404 1.16675 30.25M20.9584 8.875C20.9584 12.81 17.7684 16 13.8334 16C9.89839 16 6.70841 12.81 6.70841 8.875C6.70841 4.93997 9.89839 1.75 13.8334 1.75C17.7684 1.75 20.9584 4.93997 20.9584 8.875ZM15.4167 30.25L20.3272 28.847C20.5624 28.7798 20.6799 28.7462 20.7896 28.6959C20.887 28.6512 20.9796 28.5967 21.0659 28.5333C21.1632 28.4619 21.2497 28.3754 21.4226 28.2025L31.646 17.9792C32.7391 16.8861 32.7391 15.1139 31.646 14.0208C30.5529 12.9277 28.7807 12.9278 27.6876 14.0208L17.4643 24.2442C17.2913 24.4171 17.2049 24.5035 17.1335 24.6008C17.0701 24.6872 17.0156 24.7798 16.9709 24.8771C16.9205 24.9868 16.8869 25.1044 16.8197 25.3395L15.4167 30.25Z" stroke="white" stroke-width="2" stroke-linecap="round" stroke-linejoin="round"/>
</svg>
